<svg height="512pt" viewBox="0 0 512 512" width="512pt" xmlns="http://www.w3.org/2000/svg"><path d="m361 0v120h60v30h-90v60h-60v-90h60v-120h-150v120h60v90h-60v-60h-90v-30h60v-120h-151v120h61v60h90v30h-60v242h120v15c0 8.269531-6.730469 15-15 15h-15v30h150v-30h-15c-8.269531 0-15-6.730469-15-15v-15h120v-242h-60v-30h90v-60h61v-120zm-150 90v-60h90v60h-30v-30h-30v30zm-181 0v-60h91v60h-30v-30h-30v30zm243.578125 392h-35.15625c1.664063-4.695312 2.578125-9.742188 2.578125-15v-15h30v15c0 5.257812.914062 10.304688 2.578125 15zm117.421875-60h-270v-182h270zm91-332h-31v-30h-30v30h-30v-60h91zm0 0"/></svg>